<svg width="350" height="199" viewBox="0 0 350 199" fill="none" xmlns="http://www.w3.org/2000/svg">
<path d="M236 24L222 0.5L207.5 24C203 33 208.5 48 222 47C235.5 46 240.5 33.5 236 24Z" fill="#5295CA"/>
<path fill-rule="evenodd" clip-rule="evenodd" d="M174.5 19.5L277 104H258V137.299H91.5L91 104H71.5L174.5 19.5ZM246 94L174.5 35L103 94V126.213H246V94Z" fill="#173753" stroke="#193854"/>
<rect x="155" y="70" width="18" height="18" fill="#173753"/>
<rect x="155" y="91" width="18" height="18" fill="#173753"/>
<rect x="176" y="70" width="18" height="18" fill="#173753"/>
<rect x="176" y="91" width="18" height="18" fill="#173753"/>
<path d="M1 151H10.5V198.5H1V151Z" fill="#173654" stroke="#193854"/>
<path d="M20.5 151H31L43 172L56 150.5L66.5 151L66 198.5H57V167.5L43.5 189L30 167.5L29.5 198.5H20.5V151Z" fill="#173954" stroke="#193854"/>
<path fill-rule="evenodd" clip-rule="evenodd" d="M76 150.5V198.5H86V184C104.5 185 111.636 179.267 112.5 166.5C110.752 151.528 102 149 76 150.5ZM86 160V174.5H96.5C101 173 102.245 170.991 102 167C101.938 163.214 100.5 161.5 96.5 160H86Z" fill="#173954" stroke="#193854"/>
<path d="M119.5 151V198H152V190H128.5V179H148.5V171H128.5V159.5H151.5V151H119.5Z" fill="#163854" stroke="#193854"/>
<path fill-rule="evenodd" clip-rule="evenodd" d="M161 151V198H170V182.5H179L189 198H199L188.5 181.5C195.615 178.43 197.93 175.479 199 166.5C198.5 159.5 193.835 153.402 187.5 151.5L184.5 151H161ZM170 174V159.5H182C186.232 160.428 187.88 161.822 189 166.5C188.602 170.744 186.5 173.5 182 174H170Z" fill="#163653"/>
<path d="M170 174V159.5H182C186.232 160.428 187.88 161.822 189 166.5C188.602 170.744 186.5 173.5 182 174M170 174C170 174 178 174 182 174M170 174H182M161 151V198H170V182.5H179L189 198H199L188.5 181.5C195.615 178.43 197.93 175.479 199 166.5C198.5 159.5 193.835 153.402 187.5 151.5L184.5 151H161Z" stroke="#193854"/>
<path d="M207 151V198.5H215.5V166.5L229 189L243 166V198.5H252V150.5H242L229 172L217 151H207Z" fill="#173752" stroke="#193854"/>
<path d="M263 151V198H296V190H272.5V179H292.5V170.5H272.5V159.5H295.5V151H263Z" fill="#173753" stroke="#193854"/>
<path d="M304.5 151H316.5L326 166L336.5 151H348L332 174.5L348.5 198.5H336.5L326 182L315 198H304L320 174.5L304.5 151Z" fill="#173753" stroke="#193854"/>
</svg>
