<svg width="512" height="512" viewBox="0 0 512 512" fill="none" xmlns="http://www.w3.org/2000/svg">
<circle cx="256" cy="256" r="238" fill="white"/>
<g clip-path="url(#clip0_19_7)">
<path fill-rule="evenodd" clip-rule="evenodd" d="M255.926 0C114.797 0 0 114.83 0 255.998C0 311.983 18.0549 363.904 48.7467 406.048L16.849 501.16L115.247 469.713C155.718 496.501 204.015 512 256.074 512C397.203 512 512 397.166 512 256.002C512 114.834 397.203 0.00423177 256.074 0.00423177L255.926 0ZM184.457 130.035C179.493 118.147 175.731 117.697 168.211 117.391C165.65 117.242 162.797 117.094 159.633 117.094C149.85 117.094 139.621 119.952 133.451 126.272C125.931 133.948 107.273 151.855 107.273 188.578C107.273 225.302 134.054 260.819 137.663 265.788C141.426 270.749 189.875 347.203 265.102 378.363C323.929 402.743 341.386 400.483 354.774 397.625C374.332 393.411 398.859 378.957 405.029 361.505C411.198 344.043 411.198 329.143 409.389 325.983C407.585 322.823 402.616 321.022 395.096 317.255C387.576 313.491 351.012 295.431 344.091 293.023C337.318 290.466 330.851 291.37 325.738 298.595C318.515 308.679 311.446 318.915 305.726 325.083C301.212 329.899 293.836 330.502 287.671 327.941C279.395 324.484 256.227 316.35 227.637 290.916C205.519 271.204 190.474 246.675 186.113 239.301C181.748 231.779 185.663 227.408 189.119 223.348C192.881 218.68 196.491 215.371 200.253 211.005C204.015 206.642 206.122 204.383 208.529 199.265C211.09 194.299 209.281 189.181 207.476 185.418C205.671 181.655 190.627 144.931 184.457 130.035Z" fill="#67C15E"/>
</g>
<defs>
<clipPath id="clip0_19_7">
<rect width="512" height="512" fill="white"/>
</clipPath>
</defs>
</svg>
